<svg xmlns="http://www.w3.org/2000/svg" xmlns:xlink="http://www.w3.org/1999/xlink" width="836" height="141" viewBox="0 0 836 141">
  <defs>
    <clipPath id="clip-path">
      <rect id="Rectangle_607" data-name="Rectangle 607" width="836" height="141" fill="#d9d9d9"/>
    </clipPath>
  </defs>
  <g id="Element" transform="translate(0 -685)">
    <g id="Rectangle_607-2" data-name="Rectangle 607" transform="translate(0 685)" clip-path="url(#clip-path)">
      <g id="Group_1000001426" data-name="Group 1000001426" transform="translate(-245 -8.526)">
        <g id="Group" transform="translate(2.709 17.444)">
          <g id="Group-2" data-name="Group">
            <path id="Vector" d="M.629,69.848c4.242-3.877,8.484-7.707,12.8-11.538,17.107-15.1,35.674-29.781,58.832-41A176.162,176.162,0,0,1,199.377,7.55c14.047,4.378,26.356,10.717,38.039,17.33,11.752,6.613,23.018,13.636,35.814,19.382a167.7,167.7,0,0,0,42,12.222c30.737,4.971,62.865,3.694,94.158,3.329,29.833-.365,59.6.182,88.6,5.473,52.364,9.532,97.5,30.51,141.237,50.851,44.437,20.705,89.708,42.185,142.42,52.766,2.712.5,3.616,3.238.834,4.15-2.364.775-4.659,1.505-7.024,2.28-3.964,1.323-7.51-2.6-3.477-3.922,2.364-.775,4.659-1.505,7.024-2.28.278,1.368.556,2.782.835,4.15-6.328-1.231-12.517-2.645-18.637-4.2-50.556-12.861-94.089-34.569-138.108-54.864C579.835,94.292,534.216,74.5,481.573,67.385c-30.32-4.1-61.335-3.1-92.072-2.736-30.111.365-61.265.274-89.986-6.476A171.144,171.144,0,0,1,260.851,43.9c-11.961-6.111-22.948-13-34.631-19.337-12.239-6.567-25.382-12.359-40.4-15.78a173.252,173.252,0,0,0-45.688-4.013C79.28,7.5,39.294,42.3,6.679,72.128c-2.643,2.372-8.623.091-6.05-2.28Z" transform="translate(0 0)" fill="#fff"/>
          </g>
        </g>
        <g id="Group-3" data-name="Group">
          <g id="Group-4" data-name="Group">
            <path id="Vector-2" data-name="Vector" d="M.139,54.318A210.7,210.7,0,0,1,20.862,40.089C81.571,3.559,168.636-9.3,247.217,6.888c40.751,8.391,74.756,24.034,104.729,43.69,31.224,20.477,59.6,43.1,98.539,57.6,84.84,31.559,186.23,25.676,279.693,22.347,93.88-3.375,187.2.365,279,13.591,90.055,12.952,177.26,34.25,258.344,63.118.487.182.07.684-.417.5-9.944-3.557-19.958-6.978-30.111-10.307-82.406-27-170.723-46.244-261.334-57.19-45.688-5.518-91.933-8.893-138.317-10.125-48.331-1.231-96.384.593-144.645,2.326-87.552,3.1-183.588,3.512-258.9-30.465-34.84-15.734-61.126-37.9-91.585-56.87C310.152,25.131,272.113,10.674,228.789,4.2,144.992-8.3,55.98,11.677.695,54.729c-.348.274-.974-.137-.556-.41Z" transform="translate(0 0)" fill="#fff" stroke="#fff" stroke-width="1"/>
          </g>
        </g>
      </g>
    </g>
  </g>
</svg>
