<svg xmlns="http://www.w3.org/2000/svg" xmlns:xlink="http://www.w3.org/1999/xlink" width="836" height="148" viewBox="0 0 836 148">
  <defs>
    <clipPath id="clip-path">
      <rect id="Rectangle_607" data-name="Rectangle 607" width="836" height="148" transform="translate(0 -0.298)" fill="#d9d9d9"/>
    </clipPath>
  </defs>
  <g id="Element" transform="translate(0 -684.702)">
    <g id="Rectangle_607-2" data-name="Rectangle 607" transform="translate(0 685)" clip-path="url(#clip-path)">
      <g id="Group_1000001426" data-name="Group 1000001426" transform="translate(-245 -8.931)">
        <g id="Group" transform="translate(2.709 18.274)">
          <g id="Group-2" data-name="Group">
            <path id="Vector" d="M.629,73.167c4.242-4.061,8.484-8.074,12.8-12.087C30.532,45.268,49.1,29.885,72.256,18.132A168.779,168.779,0,0,1,199.377,7.909c14.047,4.586,26.356,11.227,38.039,18.154,11.752,6.927,23.018,14.284,35.814,20.3a161.983,161.983,0,0,0,42,12.8c30.737,5.207,62.865,3.87,94.158,3.487,29.833-.382,59.6.191,88.6,5.733,52.364,9.985,97.5,31.96,141.237,53.267,44.437,21.689,89.708,44.19,142.42,55.274,2.712.526,3.616,3.392.834,4.347-2.364.812-4.659,1.577-7.024,2.389-3.964,1.385-7.51-2.723-3.477-4.109,2.364-.812,4.659-1.577,7.024-2.389.278,1.433.556,2.914.835,4.347-6.328-1.29-12.517-2.771-18.637-4.4-50.556-13.472-94.089-36.212-138.108-57.471C579.835,98.774,534.216,78.04,481.573,70.588c-30.32-4.3-61.335-3.249-92.072-2.866-30.111.382-61.265.287-89.986-6.784a166.3,166.3,0,0,1-38.665-14.953c-11.961-6.4-22.948-13.615-34.631-20.256-12.239-6.879-25.382-12.947-40.4-16.53a165.647,165.647,0,0,0-45.688-4.2C79.28,7.861,39.294,44.312,6.679,75.556c-2.643,2.484-8.623.1-6.05-2.389Z" transform="translate(0 0)" fill="#fff"/>
          </g>
        </g>
        <g id="Group-3" data-name="Group">
          <g id="Group-4" data-name="Group">
            <path id="Vector-2" data-name="Vector" d="M.139,56.9A210.629,210.629,0,0,1,20.862,41.995C81.571,3.728,168.636-9.744,247.217,7.216c40.751,8.79,74.756,25.177,104.729,45.767,31.224,21.45,59.6,45.146,98.539,60.338,84.84,33.059,186.23,26.9,279.693,23.409,93.88-3.535,187.2.382,279,14.236,90.055,13.568,177.26,35.878,258.344,66.118.487.191.07.717-.417.526-9.944-3.726-19.958-7.309-30.111-10.8-82.406-28.282-170.723-48.442-261.334-59.908-45.688-5.781-91.933-9.316-138.317-10.606-48.331-1.29-96.384.621-144.645,2.436-87.552,3.249-183.588,3.679-258.9-31.913-34.84-16.482-61.126-39.7-91.585-59.574C310.152,26.325,272.113,11.181,228.789,4.4,144.992-8.693,55.98,12.232.695,57.33c-.348.287-.974-.143-.556-.43Z" transform="translate(0 0)" fill="#fff" stroke="#fff" stroke-width="1"/>
          </g>
        </g>
      </g>
    </g>
  </g>
</svg>
