<svg xmlns="http://www.w3.org/2000/svg" xmlns:xlink="http://www.w3.org/1999/xlink" width="1096" height="215" viewBox="0 0 1096 215">
  <defs>
    <clipPath id="clip-path">
      <rect id="Rectangle_607" data-name="Rectangle 607" width="1096" height="215" fill="#d9d9d9"/>
    </clipPath>
  </defs>
  <g id="Element" transform="translate(0 -685)">
    <g id="Rectangle_607-2" data-name="Rectangle 607" transform="translate(0 685)" clip-path="url(#clip-path)">
      <g id="Group_1000001426" data-name="Group 1000001426" transform="translate(-321.313 -13)">
        <g id="Group" transform="translate(3.553 26.6)">
          <g id="Group-2" data-name="Group">
            <path id="Vector" d="M.825,106.505c5.563-5.911,11.127-11.752,16.781-17.594C40.042,65.893,64.393,43.5,94.763,26.394A201.313,201.313,0,0,1,261.479,11.512c18.423,6.676,34.565,16.342,49.887,26.426,15.413,10.083,30.188,20.793,46.969,29.555A197.284,197.284,0,0,0,413.421,86.13c40.311,7.58,82.446,5.633,123.487,5.076,39.125-.556,78.16.278,116.191,8.345,68.675,14.534,127.865,46.523,185.23,77.538,58.278,31.572,117.65,64.325,186.781,80.459,3.557.765,4.742,4.937,1.094,6.328-3.1,1.182-6.111,2.295-9.211,3.477-5.2,2.017-9.85-3.964-4.56-5.981,3.1-1.182,6.111-2.295,9.211-3.477.365,2.086.73,4.242,1.094,6.328-8.3-1.878-16.416-4.033-24.442-6.4-66.3-19.611-123.4-52.712-181.126-83.658-56.727-30.389-116.556-60.57-185.6-71.418-39.764-6.259-80.44-4.729-120.751-4.172-39.49.556-80.349.417-118.015-9.875A205.631,205.631,0,0,1,342.1,66.936c-15.687-9.318-30.1-19.819-45.418-29.485-16.051-10.014-33.289-18.846-52.988-24.061a196.519,196.519,0,0,0-59.919-6.12C103.974,11.443,51.533,64.5,8.76,109.982c-3.466,3.616-11.309.139-7.935-3.477Z" transform="translate(0 0)" fill="#fff"/>
          </g>
        </g>
        <g id="Group-3" data-name="Group">
          <g id="Group-4" data-name="Group">
            <path id="Vector-2" data-name="Vector" d="M.182,82.826a279.005,279.005,0,0,1,27.178-21.7c79.619-55.7,193.8-75.313,296.861-50.626,53.444,12.8,98.042,36.648,137.35,66.62,40.949,31.224,78.16,65.716,129.233,87.83,111.266,48.122,244.238,39.151,366.813,34.075,123.122-5.146,245.515.556,365.9,20.723C1441.624,239.5,1555.99,271.977,1662.331,316c.638.278.091,1.043-.547.765q-19.563-8.136-39.49-15.716c-108.074-41.168-223.9-70.514-342.736-87.2a1677.558,1677.558,0,0,0-181.4-15.438c-63.385-1.878-126.406.9-189.7,3.547C793.636,206.678,667.686,207.3,568.915,155.5,523.223,131.5,488.749,97.708,448.8,68.779,406.758,38.32,356.871,16.275,300.053,6.4,190.155-12.654,73.417,17.805.911,83.452c-.456.417-1.277-.209-.73-.626Z" transform="translate(0 0)" fill="#fff" stroke="#fff" stroke-width="1"/>
          </g>
        </g>
      </g>
    </g>
  </g>
</svg>
